<svg width="195" height="92" viewBox="0 0 195 92" fill="none" xmlns="http://www.w3.org/2000/svg">
<path d="M48.625 53.3167C49.3329 55.0172 50.3392 57.2544 51.0127 58.2054C44.1816 60.1167 35.9815 62.7748 27.8398 66.3079C20.2288 69.9238 4.00528 77.9452 0 81.1009C7.10529 75.3358 25.2398 63.3986 39.0664 57.2054C42.1377 55.8297 45.3561 54.5208 48.625 53.3167ZM50.0615 52.7962C61.8629 48.5801 74.1428 45.7996 82.457 46.2816C92.9252 46.8884 90.7308 53.0166 87.7676 56.2952C84.2023 60.2398 70.4714 69.4941 63.5684 71.9974C68.6255 68.7102 78.7857 61.18 78.9678 57.3568C79.1949 52.5783 71.306 53.4885 65.7686 54.6263C63.2209 55.1498 58.3931 56.1872 52.3564 57.8343C51.4732 56.8208 50.6884 55.2147 50.0615 52.7962Z" fill="#D9C455"/>
<path d="M51.3675 23.6357C49.8331 28.3979 48.2438 34.0424 47.7503 37.0654C46.7055 43.4646 46.222 50.1947 50.4456 56.75C53.9547 62.1963 56.2864 63.8809 58.638 66.0049C60.5165 67.7016 60.7359 67.9762 60.6106 67.9014C58.6938 67.3252 54.2407 67.1824 49.4593 63.7285C46.1955 61.3709 41.9013 56.0737 41.4251 47.125C40.9434 38.0724 45.8648 25.6228 48.3216 21.4766C48.4804 21.2084 48.6439 20.9232 48.8138 20.625L51.3675 23.6357ZM48.8821 0C51.5126 4.22583 55.5476 10.7402 53.5618 17.3984C53.127 18.4763 52.6007 19.9326 52.0432 21.584C51.68 21.1547 51.2953 20.7589 51.0081 20.4717C50.5258 19.9893 50.1671 19.3404 49.8899 18.585C51.3788 15.489 52.6301 11.4 51.4241 6.79688C50.117 1.80824 48.9682 0.32089 48.8821 0Z" fill="#003B71"/>
<path d="M53.4351 35.97C55.2749 43.2324 51.0988 49.1316 48.6137 51.7617C52.8806 49.7013 57.7196 44.4741 58.4986 39.0211C59.2776 33.5681 52.8095 24.6508 50.3191 21.4936C47.5384 17.9683 46.7487 12.2971 46.6838 9.61383C46.6838 9.61383 45.3854 14.158 46.5539 18.053C49.1422 26.6807 51.1354 26.8921 53.4351 35.97Z" fill="#D9C455"/>
<path d="M58.2595 80.2043C72.0861 74.0111 87.5714 63.6376 94.6767 57.8724C90.6715 61.0281 77.0974 67.4855 69.4864 71.1014C53.4046 78.0803 37.0952 81.6456 31.5576 82.7835C26.02 83.9213 18.1308 84.8316 18.3584 80.0526C18.5405 76.2294 28.7003 68.6992 33.7575 65.4121C26.8544 67.9154 13.1242 77.17 9.55892 81.1146C6.5956 84.3932 4.40061 90.5209 14.8689 91.1278C25.8331 91.7634 43.6948 86.728 58.2595 80.2043Z" fill="#003B71"/>
<path d="M112.357 60.7447H105.382L104.483 63.2247C104.173 64.1237 104.111 64.2787 104.111 64.6197C104.111 65.3017 104.545 65.4877 106.25 65.5807V66.5727C104.793 66.4487 104.018 66.4177 103.119 66.4177C102.22 66.4177 101.476 66.4487 99.9884 66.5727V65.5807C101.972 65.4877 102.406 65.1157 103.367 62.8527L110.342 45.0897L116.976 63.5347C117.534 65.1157 118.061 65.4567 119.983 65.5807V66.5727C118.247 66.4177 117.255 66.3557 115.674 66.3557C114.093 66.3557 113.101 66.4177 111.334 66.5727V65.5807C113.07 65.4877 113.473 65.3017 113.473 64.7127C113.473 64.5577 113.349 63.9377 113.256 63.5967L112.357 60.7447ZM105.847 59.5977H111.985L109.164 50.9487L105.847 59.5977ZM127.456 63.3487V48.9337C127.456 47.1357 127.146 46.9187 124.852 46.7947V45.8027H133.191C136.136 45.8027 137.996 46.4227 139.608 47.9107C141.623 49.8017 142.832 52.8397 142.832 56.0947C142.832 59.4117 141.53 62.5737 139.453 64.4027C137.779 65.8287 135.671 66.4797 132.571 66.4797H124.852V65.4877C127.146 65.3637 127.456 65.1157 127.456 63.3487ZM130.99 46.8877V63.9377C130.99 65.2087 131.269 65.4257 132.757 65.4257C135.02 65.4257 136.477 64.8987 137.407 63.6897C138.647 62.1397 139.267 59.5047 139.267 55.9087C139.267 52.6847 138.74 50.4217 137.562 48.8097C136.601 47.4767 135.206 46.8877 133.098 46.8877H130.99ZM165.66 67.0377H165.071C164.327 65.8597 163.8 65.0537 163.428 64.5267C162.653 63.4107 161.754 62.1087 161.568 61.8607L152.454 49.0267V63.4417C152.454 65.2397 152.764 65.4877 155.058 65.5807V66.5727C153.539 66.4797 152.795 66.4487 151.865 66.4487C150.904 66.4487 150.191 66.4797 148.734 66.5727V65.5807C151.028 65.4877 151.338 65.2397 151.338 63.4417V47.7867C150.563 47.0427 149.881 46.7637 148.703 46.7017V45.7097C149.912 45.7717 150.594 45.8027 151.586 45.8027C152.547 45.8027 153.167 45.7717 154.252 45.7097L164.544 60.0627V48.8407C164.544 47.0737 164.203 46.7947 161.94 46.7017V45.7097C163.459 45.8027 164.203 45.8337 165.133 45.8337C166.094 45.8337 166.807 45.8027 168.264 45.7097V46.7017C166.001 46.7947 165.66 47.0427 165.66 48.8407V67.0377ZM179.722 55.1647H187.565V48.8407C187.565 47.0737 187.224 46.7947 184.961 46.7017V45.7097C186.945 45.8647 187.968 45.9267 189.363 45.9267C190.789 45.9267 191.75 45.8647 193.61 45.7097V46.7017C191.347 46.7947 191.006 47.0737 191.006 48.8407V63.4417C191.006 65.2397 191.316 65.4567 193.61 65.5807V66.5727C191.719 66.4177 190.727 66.3557 189.363 66.3557C187.999 66.3557 186.976 66.4177 184.961 66.5727V65.5807C187.255 65.4567 187.565 65.2397 187.565 63.4417V56.2497H179.722V63.4417C179.722 65.2397 180.032 65.4567 182.326 65.5807V66.5727C180.311 66.4177 179.288 66.3557 177.924 66.3557C176.56 66.3557 175.568 66.4177 173.677 66.5727V65.5807C176.002 65.4567 176.281 65.2397 176.281 63.4417V48.8407C176.281 47.0737 175.94 46.7947 173.677 46.7017V45.7097C175.537 45.8647 176.498 45.9267 177.924 45.9267C179.319 45.9267 180.342 45.8647 182.326 45.7097V46.7017C180.063 46.7947 179.722 47.0737 179.722 48.8407V55.1647Z" fill="#003B71"/>
<path d="M110.04 80.1522H110.754C110.67 83.3442 108.738 85.3602 105.798 85.3602C102.333 85.3602 100.023 82.5042 100.023 78.1782C100.023 73.5792 102.27 70.7232 105.882 70.7232C107.352 70.7232 108.381 71.1432 109.41 72.1512L110.124 70.7442H110.544V75.3012H109.956C109.704 74.2932 109.515 73.7682 109.116 73.1382C108.507 72.1512 107.436 71.5632 106.218 71.5632C104.895 71.5632 103.887 72.2142 103.32 73.4532C102.795 74.6292 102.522 76.1622 102.522 77.9472C102.522 81.9582 103.803 84.0582 106.302 84.0582C108.465 84.0582 109.872 82.5882 110.04 80.1522ZM119.676 81.1602H114.951L114.342 82.8402C114.132 83.4492 114.09 83.5542 114.09 83.7852C114.09 84.2472 114.384 84.3732 115.539 84.4362V85.1082C114.552 85.0242 114.027 85.0032 113.418 85.0032C112.809 85.0032 112.305 85.0242 111.297 85.1082V84.4362C112.641 84.3732 112.935 84.1212 113.586 82.5882L118.311 70.5552L122.805 83.0502C123.183 84.1212 123.54 84.3522 124.842 84.4362V85.1082C123.666 85.0032 122.994 84.9612 121.923 84.9612C120.852 84.9612 120.18 85.0032 118.983 85.1082V84.4362C120.159 84.3732 120.432 84.2472 120.432 83.8482C120.432 83.7432 120.348 83.3232 120.285 83.0922L119.676 81.1602ZM115.266 80.3832H119.424L117.513 74.5242L115.266 80.3832ZM131.243 71.7732V82.9872C131.243 84.2052 131.453 84.3732 133.007 84.4362V85.1082C131.726 85.0032 131.033 84.9612 130.046 84.9612C129.059 84.9612 128.366 85.0032 127.085 85.1082V84.4362C128.639 84.3732 128.849 84.2052 128.849 82.9872V71.7732H128.03C126.413 71.7732 125.762 72.4452 125.174 74.6502H124.544L125.174 71.0382H134.96L135.59 74.6502H134.96C134.414 72.4662 133.742 71.7732 132.146 71.7732H131.243ZM146.814 81.3492L146.205 85.0452H136.398V84.3732C137.952 84.2892 138.162 84.1212 138.162 82.9242V73.1592C138.162 71.9412 137.952 71.7942 136.398 71.7102V71.0382H146.079L146.583 74.5242H145.995C145.449 72.3402 144.903 71.7732 143.286 71.7732H140.556V77.4012H143.16C144.084 77.4012 144.294 77.1072 144.399 75.6582H145.071V79.8792H144.399C144.336 78.4722 144.084 78.1362 143.16 78.1362H140.556V83.1552C140.556 84.1002 140.787 84.3102 141.837 84.3102H143.076C144.315 84.3102 144.903 83.9952 145.491 83.0712C145.806 82.5462 146.016 82.0632 146.205 81.3492H146.814ZM152.219 78.5982V82.9872C152.219 84.2052 152.429 84.3522 153.983 84.4362V85.1082C152.702 85.0032 152.051 84.9612 151.106 84.9612C150.182 84.9612 149.489 85.0032 148.124 85.1082V84.4362C149.699 84.3522 149.888 84.2052 149.888 82.9872V73.1592C149.888 71.9412 149.678 71.7942 148.124 71.7102V71.0382H154.088C155.6 71.0382 156.482 71.2272 157.238 71.7312C158.246 72.3822 158.876 73.5792 158.876 74.8182C158.876 76.0362 158.246 77.1912 157.238 77.7372C156.755 78.0102 156.335 78.1782 155.495 78.3672C156.461 78.6612 156.839 79.0602 157.406 80.2782L158.687 83.0922C159.191 84.2052 159.443 84.4152 160.409 84.4362V85.1082C159.653 85.0662 159.275 85.0452 158.792 85.0452C158.33 85.0452 157.952 85.0662 157.196 85.1082C156.944 84.6672 156.839 84.4572 156.566 83.8272L155.054 80.2992C154.466 78.9762 154.004 78.5982 152.849 78.5982H152.219ZM152.282 77.8632H153.626C154.592 77.8632 155.222 77.6532 155.684 77.1912C156.209 76.6662 156.503 75.8262 156.503 74.8182C156.503 73.8522 156.251 73.0542 155.768 72.5082C155.327 71.9832 154.739 71.7732 153.752 71.7732H152.282V77.8632ZM162.761 82.9872V73.0962C162.761 71.8992 162.53 71.7102 160.997 71.6472V70.9752C162.341 71.0802 163.013 71.1222 163.958 71.1222C164.903 71.1222 165.575 71.0802 166.919 70.9752V71.6472C165.386 71.7102 165.155 71.8782 165.155 73.0962V82.9872C165.155 84.2052 165.344 84.3522 166.919 84.4362V85.1082C165.554 85.0032 164.861 84.9612 163.958 84.9612C163.055 84.9612 162.362 85.0032 160.997 85.1082V84.4362C162.572 84.3522 162.761 84.2052 162.761 82.9872ZM179.349 85.4232H178.95C178.446 84.6252 178.089 84.0792 177.837 83.7222C177.312 82.9662 176.703 82.0842 176.577 81.9162L170.403 73.2222V82.9872C170.403 84.2052 170.613 84.3732 172.167 84.4362V85.1082C171.138 85.0452 170.634 85.0242 170.004 85.0242C169.353 85.0242 168.87 85.0452 167.883 85.1082V84.4362C169.437 84.3732 169.647 84.2052 169.647 82.9872V72.3822C169.122 71.8782 168.66 71.6892 167.862 71.6472V70.9752C168.681 71.0172 169.143 71.0382 169.815 71.0382C170.466 71.0382 170.886 71.0172 171.621 70.9752L178.593 80.6982V73.0962C178.593 71.8992 178.362 71.7102 176.829 71.6472V70.9752C177.858 71.0382 178.362 71.0592 178.992 71.0592C179.643 71.0592 180.126 71.0382 181.113 70.9752V71.6472C179.58 71.7102 179.349 71.8782 179.349 73.0962V85.4232ZM192.812 70.7232V75.3012H192.203C191.951 74.3352 191.783 73.8732 191.447 73.2852C190.796 72.1512 189.62 71.5002 188.276 71.5002C185.693 71.5002 184.391 73.6632 184.391 77.9472C184.391 79.7322 184.622 81.2862 185.063 82.4622C185.588 83.8692 186.701 84.6252 188.234 84.6252C189.011 84.6252 189.578 84.4782 190.712 83.9952V80.3832C190.712 79.5012 190.46 79.3332 189.158 79.2492V78.5772C190.271 78.6822 190.901 78.7032 191.762 78.7032C192.644 78.7032 193.274 78.6822 194.387 78.5772V79.2492C193.127 79.3542 192.98 79.4802 192.98 80.4252V83.6172C191.363 84.7302 189.725 85.2762 187.982 85.2762C184.223 85.2762 181.892 82.5042 181.892 78.0102C181.892 73.5792 184.244 70.8072 187.961 70.8072C189.41 70.8072 190.46 71.1852 191.594 72.1512L192.392 70.7232H192.812Z" fill="#003B71"/>
</svg>
